<svg xmlns="http://www.w3.org/2000/svg" viewBox="0 0 28 28" fill="none">
  <circle cx="14" cy="14" r="12.5" stroke="#003399" stroke-width="1.5" fill="#003399"/>
  <g transform="translate(14,14)">
    <g transform="rotate(0) translate(0,-9)"><polygon points="0,-2.2 0.7,-0.7 2.1,-0.7 1,-0.1 1.3,1.4 0,0.7 -1.3,1.4 -1,-0.1 -2.1,-0.7 -0.7,-0.7" fill="#FFCC00"/></g>
    <g transform="rotate(30) translate(0,-9)"><polygon points="0,-2.2 0.7,-0.7 2.1,-0.7 1,-0.1 1.3,1.4 0,0.7 -1.3,1.4 -1,-0.1 -2.1,-0.7 -0.7,-0.7" fill="#FFCC00"/></g>
    <g transform="rotate(60) translate(0,-9)"><polygon points="0,-2.2 0.7,-0.7 2.1,-0.7 1,-0.1 1.3,1.4 0,0.7 -1.3,1.4 -1,-0.1 -2.1,-0.7 -0.7,-0.7" fill="#FFCC00"/></g>
    <g transform="rotate(90) translate(0,-9)"><polygon points="0,-2.2 0.7,-0.7 2.1,-0.7 1,-0.1 1.3,1.4 0,0.7 -1.3,1.4 -1,-0.1 -2.1,-0.7 -0.7,-0.7" fill="#FFCC00"/></g>
    <g transform="rotate(120) translate(0,-9)"><polygon points="0,-2.2 0.7,-0.7 2.1,-0.7 1,-0.1 1.3,1.4 0,0.7 -1.3,1.4 -1,-0.1 -2.1,-0.7 -0.7,-0.7" fill="#FFCC00"/></g>
    <g transform="rotate(150) translate(0,-9)"><polygon points="0,-2.2 0.7,-0.7 2.1,-0.7 1,-0.1 1.3,1.4 0,0.7 -1.3,1.4 -1,-0.1 -2.1,-0.7 -0.7,-0.7" fill="#FFCC00"/></g>
    <g transform="rotate(180) translate(0,-9)"><polygon points="0,-2.2 0.7,-0.7 2.1,-0.7 1,-0.1 1.3,1.4 0,0.7 -1.3,1.4 -1,-0.1 -2.1,-0.7 -0.7,-0.7" fill="#FFCC00"/></g>
    <g transform="rotate(210) translate(0,-9)"><polygon points="0,-2.2 0.7,-0.7 2.1,-0.7 1,-0.1 1.3,1.4 0,0.7 -1.3,1.4 -1,-0.1 -2.1,-0.7 -0.7,-0.7" fill="#FFCC00"/></g>
    <g transform="rotate(240) translate(0,-9)"><polygon points="0,-2.2 0.7,-0.7 2.1,-0.7 1,-0.1 1.3,1.4 0,0.7 -1.3,1.4 -1,-0.1 -2.1,-0.7 -0.7,-0.7" fill="#FFCC00"/></g>
    <g transform="rotate(270) translate(0,-9)"><polygon points="0,-2.2 0.7,-0.7 2.1,-0.7 1,-0.1 1.3,1.4 0,0.7 -1.3,1.4 -1,-0.1 -2.1,-0.7 -0.7,-0.7" fill="#FFCC00"/></g>
    <g transform="rotate(300) translate(0,-9)"><polygon points="0,-2.2 0.7,-0.7 2.1,-0.7 1,-0.1 1.3,1.4 0,0.7 -1.3,1.4 -1,-0.1 -2.1,-0.7 -0.7,-0.7" fill="#FFCC00"/></g>
    <g transform="rotate(330) translate(0,-9)"><polygon points="0,-2.2 0.7,-0.7 2.1,-0.7 1,-0.1 1.3,1.4 0,0.7 -1.3,1.4 -1,-0.1 -2.1,-0.7 -0.7,-0.7" fill="#FFCC00"/></g>
  </g>
</svg>
