<svg xmlns="http://www.w3.org/2000/svg" viewBox="0 0 28 28" fill="none">
  <rect width="28" height="28" rx="3" fill="#3178C6"/>
  <path fill-rule="evenodd" clip-rule="evenodd" d="M13.5 14.4V12.5H6v2.4h2.5v9.1H11v-9.1h2.5V14.4z" fill="#fff"/>
  <path d="M15.3 23.4v-2.2c.4.4 1 .7 1.5.9.5.2 1.1.3 1.6.3.4 0 .7 0 1-.1.3-.1.5-.2.7-.3.2-.1.3-.3.4-.5.1-.2.1-.4.1-.6 0-.3-.1-.5-.2-.7-.1-.2-.3-.4-.5-.6-.2-.2-.5-.3-.8-.5-.3-.2-.6-.3-1-.5-.5-.2-.9-.5-1.3-.7-.4-.3-.7-.5-.9-.8-.2-.3-.4-.6-.5-1-.1-.4-.2-.8-.2-1.3 0-.6.1-1 .3-1.5.2-.4.5-.8.9-1 .4-.3.8-.5 1.3-.6.5-.1 1-.2 1.6-.2.3 0 .6 0 .9.1.3 0 .6.1.8.2.3.1.5.2.7.3.2.1.4.2.5.3v2.1c-.2-.2-.4-.3-.6-.4-.2-.1-.5-.3-.7-.3-.3-.1-.5-.2-.8-.2-.3 0-.5-.1-.7-.1-.3 0-.6 0-.9.1-.2.1-.4.2-.6.3-.1.1-.3.3-.3.4-.1.2-.1.3-.1.5 0 .2 0 .4.1.6.1.2.3.3.5.5.2.2.4.3.7.5.3.2.6.3 1 .5.5.2 1 .5 1.4.7.4.3.7.5 1 .8.3.3.5.6.6 1 .2.4.2.8.2 1.3 0 .6-.1 1.1-.3 1.5-.2.4-.5.8-.9 1.1-.4.3-.8.5-1.4.6-.5.1-1.1.2-1.7.2-.3 0-.6 0-1-.1-.3-.1-.7-.1-1-.2-.3-.1-.6-.2-.9-.4-.3-.1-.5-.3-.7-.5z" fill="#fff"/>
</svg>
